HIERARCHY
ROOT Hips
{
  OFFSET -68.8459 97.676 -4.08987
  CHANNELS 6 Xposition Yposition Zposition Zrotation Xrotation Yrotation
  JOINT RightUpLeg
  {
    OFFSET -8.9458 -8.66707 0.101652
    CHANNELS 3 Zrotation Xrotation Yrotation
    JOINT RightLeg
    {
      OFFSET 0 -44.4227 1.3727
      CHANNELS 3 Zrotation Xrotation Yrotation
      JOINT RightFoot
      {
        OFFSET 0.253549 -42.0924 -1.46059
        CHANNELS 3 Zrotation Xrotation Yrotation
        JOINT RightToes
        {
          OFFSET 0.04 -4.41509 8.4991
          CHANNELS 3 Zrotation Xrotation Yrotation
          End Site
          {
            OFFSET -0.08 -0.137448 9.77979
          }
        }
      }
    }
  }
  JOINT Spine
  {
    OFFSET 0 11.8905 0
    CHANNELS 3 Zrotation Xrotation Yrotation
    JOINT Spine1
    {
      OFFSET 0 25.6574 0.127663
      CHANNELS 3 Zrotation Xrotation Yrotation
      JOINT HEad
      {
        OFFSET 0 8.73416 0.011341
        CHANNELS 3 Zrotation Xrotation Yrotation
        End Site
        {
          OFFSET -0.29 12.7742 2.51395
        }
      }
      JOINT LeftShoulder1
      {
        OFFSET 8.99 -0.362252 -0.22
        CHANNELS 3 Zrotation Xrotation Yrotation
        JOINT LeftArm
        {
          OFFSET 10.2827 -0.00338 0.322123
          CHANNELS 3 Zrotation Xrotation Yrotation
          JOINT LeftForeArm
          {
            OFFSET 32.7669 0.099144 -1.42434
            CHANNELS 3 Zrotation Xrotation Yrotation
            JOINT LeftHand
            {
              OFFSET 27.5643 0.085362 1.02216
              CHANNELS 3 Zrotation Xrotation Yrotation
              End Site
              {
                OFFSET 16.7443 -0.6 1.50291
              }
            }
          }
        }
      }
      JOINT RightShoulder
      {
        OFFSET -8.99 -0.362252 -0.22
        CHANNELS 3 Zrotation Xrotation Yrotation
        JOINT RightArm
        {
          OFFSET -10.2827 -0.00338 0.322123
          CHANNELS 3 Zrotation Xrotation Yrotation
          JOINT RightForeArm
          {
            OFFSET -32.8971 0.099144 -1.42434
            CHANNELS 3 Zrotation Xrotation Yrotation
            JOINT RightHand
            {
              OFFSET -27.4921 0.085362 1.02216
              CHANNELS 3 Zrotation Xrotation Yrotation
              End Site
              {
                OFFSET -16.6312 -0.6 1.50291
              }
            }
          }
        }
      }
    }
  }
  JOINT LeftUpLeg
  {
    OFFSET 8.9458 -8.66707 0.101652
    CHANNELS 3 Zrotation Xrotation Yrotation
    JOINT LeftLeg
    {
      OFFSET 0 -44.4227 1.3727
      CHANNELS 3 Zrotation Xrotation Yrotation
      JOINT LeftFoot
      {
        OFFSET -0.253549 -42.0924 -1.46059
        CHANNELS 3 Zrotation Xrotation Yrotation
        JOINT LeftToes
        {
          OFFSET -0.04 -4.41509 8.4991
          CHANNELS 3 Zrotation Xrotation Yrotation
          End Site
          {
            OFFSET 0.08 -0.047448 9.77979
          }
        }
      }
    }
  }
}
MOTION
Frames:	16
Frame Time:	0.0166667
0.00000 96.00000 0.00000 0.00000 0.00000 0.00000 0.00000 0.00000 0.00000 0.00000 0.00000 0.00000 0.00000 0.00000 0.00000 0.00000 0.00000 0.00000 0.00000 0.00000 0.00000 0.00000 0.00000 0.00000 0.00000 0.00000 0.00000 0.00000 0.00000 0.00000 0.00000 0.00000 0.00000 0.00000 0.00000 0.00000 0.00000 0.00000 0.00000 0.00000 0.00000 0.00000 0.00000 0.00000 0.00000 0.00000 0.00000 0.00000 0.00000 0.00000 0.00000 0.00000 0.00000 0.00000 0.00000 0.00000 0.00000 0.00000 0.00000 0.00000 0.00000 0.00000 0.00000 
-68.8459 97.676 -4.08987 1.28268 -1.76649 90.4739 -15.5119 -24.7441 -4.07111 12.5305 29.7193 -4.40304 18.7814 -4.06029 -0.745713 1.60027 6.33667 -0.707146 -0.129239 6.83301 -5.40346 -2.644 13.474 -10.1378 19.4351 1.71896 -20.3333 -1.98785e-015 2.78299e-015 -0 -72.7906 8.05279 -49.4089 -13.8997 38.3334 -105.255 6.54677 9.62745 -1.04006 28.2446 -4.89329 -18.5504 69.3574 -24.7427 41.3081 -11.7847 32.7851 138.762 -20.564 8.77016 2.22253 10.7442 0.255239 -8.26365 -17.0668 28.1481 9.30824 -6.4507 14.2365 1.12681 34.8923 -51.4394 18.3733 
-69.4096 97.7412 -3.79588 0.751328 -1.74341 90.5255 -16.2767 -26.0146 -3.90486 12.4716 30.2326 -2.01632 18.6519 -1.43597 -1.15456 0.14926 2.27255 -1.55225 0.141119 6.73666 -5.33648 -2.7024 13.2511 -9.98894 18.6551 1.62648 -20.1136 3.3656e-031 6.06293e-015 -3.18055e-015 -72.7701 8.44178 -49.042 -13.9632 38.3243 -105.016 6.54677 9.62745 -1.04006 27.8562 -4.8683 -18.6739 69.3398 -25.1212 41.64 -11.5968 33.5208 138.1 -20.1341 8.82358 2.05499 11.936 -1.42965 -7.05215 -18.4307 29.1268 8.71091 -7.68827 15.539 1.44211 34.7949 -52.0934 17.5665 
-69.9499 97.6981 -3.50085 0.44655 -1.90349 90.9792 -16.8508 -26.8104 -3.4717 12.4312 30.7394 -1.98938 17.125 1.15014 -1.43997 -1.15514 -1.51677 -2.0532 0.723677 6.76537 -5.31869 -2.52609 13.2379 -9.94562 17.6952 1.53932 -19.9654 2.38542e-015 1.39149e-015 -0 -72.6403 9.00843 -48.7397 -14.0082 38.1813 -104.623 6.54677 9.62745 -1.04006 27.4516 -4.90896 -19.0301 69.3122 -25.4169 42.1664 -11.4642 34.3684 137.075 -20.0744 8.81545 2.12311 13.413 -3.15491 -5.59455 -19.6088 30.5223 8.48866 -8.74384 17.9079 1.82194 36.2081 -53.736 18.006 
-70.4536 97.4976 -3.17322 0.468232 -2.18615 91.7729 -17.3696 -27.0381 -2.72264 12.7085 31.3546 -5.63964 14.5475 2.83202 -1.44036 -1.51717 -3.0231 -1.71464 1.43014 6.89885 -5.34532 -2.209 13.4263 -9.9944 16.7918 1.521 -19.9448 -7.95139e-016 -1.59028e-015 -1.59028e-015 -72.2814 9.73088 -48.7785 -13.9751 37.816 -104.033 6.54677 9.62745 -1.04006 27.0142 -4.91608 -19.2991 69.2574 -25.9514 42.7664 -11.355 35.2337 135.854 -20.4497 8.74737 2.39337 14.8876 -4.62493 -4.09748 -20.0863 32.1561 8.77498 -9.36925 20.9109 2.18968 39.2137 -56.008 20.0247 
-70.9071 97.1169 -2.79244 0.825903 -2.48846 92.7165 -17.9373 -26.7789 -1.64418 13.5529 32.2044 -12.3925 11.6256 2.57763 -1.14583 -0.546266 -0.72893 -0.733359 2.07403 7.09164 -5.38738 -1.89928 13.7483 -10.053 16.1535 1.64711 -20.0697 -1.59028e-015 5.71506e-015 3.18055e-015 -71.6159 10.5248 -49.3639 -13.8501 37.2175 -103.228 6.54677 9.62745 -1.04006 26.5731 -4.84962 -19.3228 69.117 -26.7835 43.3295 -11.2091 36.0082 134.623 -21.1896 8.62801 2.8127 16.1263 -5.53627 -2.97202 -19.6676 33.5808 9.44758 -9.37983 23.8944 2.42059 43.5933 -58.2948 23.6763 
-71.2922 96.5384 -2.34066 1.42751 -2.70328 93.5354 -18.5774 -26.236 -0.317758 14.9852 33.2661 -19.8225 9.64711 0.428721 -0.801675 1.09115 4.04652 0.121912 2.46587 7.28873 -5.38989 -1.75128 14.1081 -9.9945 15.9004 1.94663 -20.3062 -1.59028e-015 3.37934e-015 1.59028e-015 -70.6665 11.2583 -50.5539 -13.6573 36.4722 -102.27 6.54677 9.62745 -1.04006 26.2188 -4.74784 -19.1723 68.8514 -27.7013 43.8465 -10.9885 36.6035 133.549 -22.0961 8.4679 3.35885 17.0203 -5.67166 -2.62806 -18.6342 34.3203 10.0341 -8.84681 26.1606 2.43724 48.882 -60.0577 28.6744 
-71.5861 95.7363 -1.79001 2.12466 -2.77167 93.9417 -19.2367 -25.7667 1.0153 16.7015 34.4917 -25.2428 9.31707 -1.74272 -0.616188 2.02068 6.82458 0.595551 2.45403 7.4511 -5.2766 -1.86179 14.4276 -9.70745 16.0141 2.36032 -20.5783 -1.19271e-015 3.57812e-015 -4.77083e-015 -69.5871 11.7719 -52.2043 -13.4387 35.742 -101.332 6.54677 9.62745 -1.04006 26.0414 -4.67187 -19.0072 68.4911 -28.4101 44.3818 -10.7365 36.9416 132.791 -22.9194 8.28879 3.98659 17.5826 -5.00342 -3.25371 -17.554 34.2471 10.1183 -8.14565 27.1342 2.29432 54.5203 -61.1191 34.427 
-71.8281 94.7876 -1.15922 2.79474 -2.73405 93.7649 -19.7673 -25.7584 2.02287 18.1475 35.8649 -27.1901 9.9596 -1.64989 -0.657121 1.29267 4.00275 1.04653 2.10527 7.5827 -5.02897 -2.23098 14.6988 -9.15299 16.3442 2.71711 -20.7697 3.97569e-016 1.88845e-015 -0 -68.6328 11.9064 -54.0161 -13.2467 35.2136 -100.658 6.54677 9.62745 -1.04006 26.0409 -4.63188 -18.8663 68.138 -28.747 44.9629 -10.5901 36.9076 132.52 -23.4328 8.14687 4.50476 17.8755 -3.68821 -4.74898 -16.8647 33.4975 9.86348 -7.475 26.5935 2.05753 59.3869 -61.4112 39.7451 
-72.0576 93.829 -0.463097 3.3907 -2.66118 92.9778 -19.9929 -26.5371 2.45099 18.876 37.6948 -25.8086 10.8702 1.30574 -0.965924 -0.995884 -4.45722 1.38857 1.60793 7.72665 -4.67493 -2.78025 14.9869 -8.39333 16.6746 2.7857 -20.7217 -1.13106e-031 -4.07509e-015 -1.59028e-015 -68.0774 11.5318 -55.6567 -13.1353 35.0349 -100.452 6.54677 9.62745 -1.04006 26.1019 -4.55997 -18.5783 67.9368 -28.8004 45.5115 -10.7116 36.3953 132.891 -23.4621 8.14113 4.52176 17.9653 -1.99852 -6.72509 -16.6775 32.3983 9.90528 -6.65594 24.702 1.71226 61.9476 -60.8744 43.1464 
-72.2771 92.9787 0.313088 3.91642 -2.6112 91.7402 -19.8167 -28.1451 2.27851 18.7156 40.2886 -22.2335 12.2379 5.90475 -1.53297 -3.86282 -15.1549 1.43346 1.12487 7.92242 -4.28854 -3.38078 15.3652 -7.5842 16.8184 2.40947 -20.3066 2.38542e-015 -9.93923e-017 1.59028e-015 -68.1124 10.6038 -56.8775 -13.1418 35.2614 -100.769 6.54677 9.62745 -1.04006 26.0741 -4.36896 -17.9195 68.0494 -28.8403 45.9213 -11.187 35.4582 133.972 -22.9006 8.37171 3.56826 17.9489 -0.235086 -8.61814 -16.8056 31.2884 10.6905 -5.51492 22.1674 1.28233 62.0065 -59.7435 44.358 
-72.4521 92.3118 1.19853 4.35195 -2.63873 90.4156 -19.2536 -30.3092 1.69691 17.6737 43.5474 -17.5067 14.2329 10.4955 -2.3091 -6.12925 -24.0213 1.56874 0.763135 8.16716 -3.97107 -3.88831 15.8315 -6.92691 16.7174 1.62396 -19.5648 7.95139e-016 -3.57812e-015 -1.59028e-015 -68.752 9.24854 -57.5854 -13.2641 35.8197 -101.473 6.54677 9.62745 -1.04006 25.8826 -4.0443 -16.8675 68.5998 -29.1247 46.1795 -11.9789 34.3655 135.637 -21.7433 8.85387 1.39283 17.9761 1.31256 -10.0044 -16.9101 30.3766 12.0089 -4.26135 19.9788 0.888229 60.9364 -58.5135 44.4312 
-72.5363 91.8797 2.2191 4.63089 -2.77851 89.4839 -18.4757 -32.5263 0.998517 15.9704 46.8462 -12.3295 16.45 14.1147 -3.15969 -7.29411 -29.4857 2.06218 0.573282 8.40796 -3.80654 -4.19445 16.288 -6.58657 16.4775 0.674472 -18.7598 -7.95139e-016 -1.78906e-015 -1.59028e-015 -69.8043 7.78292 -57.8302 -13.452 36.5136 -102.296 6.54677 9.62745 -1.04006 25.5679 -3.66627 -15.6651 69.5679 -29.7567 46.3659 -12.9812 33.4213 137.557 -20.1298 9.47543 -1.79998 18.2195 2.37054 -10.8471 -16.7247 29.7619 13.1232 -3.38197 18.6816 0.646347 59.8112 -57.5427 44.1764 
-72.5074 91.7204 3.38282 4.69686 -3.0162 89.36 -17.8401 -34.2537 0.467346 14.2381 49.3794 -7.63807 18.1665 16.3079 -3.82509 -7.60036 -31.9081 2.65126 0.567294 8.57767 -3.82352 -4.25969 16.6091 -6.61959 16.2823 -0.0947147 -18.2508 -7.95139e-016 1.98785e-016 1.59028e-015 -70.9662 6.60045 -57.7145 -13.6272 37.0992 -102.981 6.54677 9.62745 -1.04006 25.231 -3.34345 -14.6452 70.7411 -30.6869 46.5752 -14.1084 32.718 139.28 -18.3513 10.0675 -5.41663 18.8297 2.71648 -11.3699 -16.2468 29.4859 13.3036 -3.28561 18.1572 0.612416 58.6037 -56.8673 43.515 
-72.3795 91.8361 4.67447 4.55137 -3.28099 90.2498 -17.7542 -35.1144 0.299553 13.3121 50.5665 -4.74846 18.6049 16.965 -4.02129 -7.51728 -32.1459 2.92077 0.739658 8.63929 -3.99203 -4.10969 16.7251 -6.96741 16.2679 -0.457697 -18.2861 -2.38542e-015 -2.18663e-015 -1.59028e-015 -71.9734 5.99899 -57.3255 -13.7268 37.4037 -103.395 6.54677 9.62745 -1.04006 24.9437 -3.1406 -14.0229 71.8495 -31.8437 46.9271 -15.3186 32.1317 140.359 -16.7606 10.5194 -8.78596 19.8647 2.21076 -11.6961 -15.6746 29.5685 12.2278 -4.05411 18.1329 0.784192 56.9762 -56.4053 42.1325 
-72.1842 92.1731 6.05741 4.25109 -3.47699 92.1271 -18.4498 -34.9363 0.610331 13.5859 50.1049 -4.67442 17.3598 16.5145 -3.68357 -7.40805 -31.1414 2.6523 1.06435 8.59748 -4.24907 -3.80137 16.6499 -7.50539 16.4769 -0.471577 -18.8952 2.20695e-031 3.97569e-015 -3.18055e-015 -72.6801 6.0634 -56.7442 -13.7389 37.4002 -103.557 6.54677 9.62745 -1.04006 24.6975 -3.05009 -13.7903 72.7552 -33.2661 47.6105 -16.5755 31.5064 140.449 -15.6203 10.8151 -11.4282 21.2216 0.8073 -11.6733 -15.142 30.0553 10.0042 -5.4957 18.6535 1.12947 55.0685 -56.1862 40.1347 
